<svg width="26" height="26" id="bookmarks" viewBox="0 -6 26 50" fill="none" xmlns="http://www.w3.org/2000/svg">
<path d="M1.393 0a1.356 1.356 0 0 0 -0.984 0.427 1.486 1.486 0 0 0 -0.409 1.034v36.075c0 0.247 0.059 0.488 0.171 0.706 0.113 0.215 0.277 0.397 0.474 0.529a1.356 1.356 0 0 0 1.339 0.091L13 33.455l11.017 5.408a1.337 1.337 0 0 0 1.337 -0.093 1.486 1.486 0 0 0 0.475 -0.529 1.486 1.486 0 0 0 0.171 -0.706V1.463a1.486 1.486 0 0 0 -0.409 -1.033 1.356 1.356 0 0 0 -0.984 -0.429zm1.393 2.925h20.429v32.311l-9.624 -4.717a1.337 1.337 0 0 0 -1.181 0L2.786 35.234z" fill="#78BC42"/>
</svg>